<?xml version="1.0" encoding="utf-8"?>
<!-- Generator: Adobe Illustrator 26.2.1, SVG Export Plug-In . SVG Version: 6.00 Build 0)  -->
<svg version="1.1" id="Calque_1" xmlns="http://www.w3.org/2000/svg" xmlns:xlink="http://www.w3.org/1999/xlink" x="0px" y="0px"
	 viewBox="0 0 1000 1000" style="enable-background:new 0 0 1000 1000;" xml:space="preserve">
<style type="text/css">
	.st0{fill:#FD2D01;}
</style>
<g>
	<g>
		<path class="st0" d="M500.3,902.6C310,905.3,138.2,762.7,105.5,575.2C58.8,323,256.4,91.1,513.3,100
			C765,106.9,947.4,344.6,892,589.4C854.2,771,685,904.1,500.4,903C500.3,902.9,500.3,902.7,500.3,902.6z M621.4,191.2
			c-0.2-0.1-0.4-0.2-0.6-0.4C621,191,621.2,191.1,621.4,191.2C644,238,663.2,286.6,675,337.3c1.1,3.9,1.1,4,5.2,4
			c37.7-0.4,75.5,0.8,113.1-0.4C754.5,274.3,694.5,217.5,621.4,191.2z M379.2,593.3c60.6,0.5,121.2,0,181.9,0.2c2.7,0,4.1-1,5.1-3.3
			c7.1-15.3,19.7-27.5,34.5-35.3c6.5-3.5,13.3-5.9,20.4-7.7c4.5-1.4,3.2-7,3.8-10.7c2-42.5,0.7-85.1-4.6-127.3
			c-62.7,0-125,0-187.3,0c-12.2,19.9-31.3,36.3-54.6,41.3c-6.1,0.5-4.7,25-5.6,30.6C372.6,518.8,374,555.9,379.2,593.3z
			 M690.5,561.1c10,7.8,19.1,16.9,24.7,28.5c1.5,3.1,3.3,4,6.5,4c33.1-0.1,66.1-0.1,99.3-0.1c15.3-60,18.1-124.7-0.9-184.2
			c-17.6-1.1-129.3-0.6-132.8,0.7C695.3,459.8,694.9,510.8,690.5,561.1z M180.4,409.1c-17.3,59.9-19.1,124.8,0.2,184.3
			c30.4,0.9,126.7,0.4,130.4-0.6c-6.1-41.6-6.8-83.4-4.1-125.2c0.5-6.2,0.2-12.6,1.3-18.7c0.6-6.3,2.6-13-5-16.9
			c-6-5.6-11.3-12-15.6-19.1c-1.7-2.8-3.6-4-7.2-4C247,409.2,213.8,409.1,180.4,409.1z M591.5,698.3c-12-9.2-21.7-20.1-27.7-34
			c-1.1-2.5-2.2-3-4.6-3c-55.4,0.4-111-0.8-166.3,0.5c14.1,59.1,40.7,115.1,72.4,166.9c2.4,4.8,5.8,6,10.9,5.3
			c15.5,2.2,31.3,1.7,46.8,0.9C551.6,792,574.9,746.9,591.5,698.3z M408.3,299c11.2,11.2,22.8,22.8,28,38.2c1.5,4,1.4,4.1,5.7,4.1
			c54.4-0.2,108.8,0.5,163.1-0.3c-12.2-46.9-30.2-91.9-53.7-134.2c-6.8-12.3-14.1-24.3-21.3-36.3c-0.5-0.9-1.8-1.7-2.7-1.8
			c-17.2-1.8-34.4-0.4-51.7-0.2C447.9,209.5,425.5,252.9,408.3,299z M207.7,660.6c36.5,67.5,98.1,122.9,170,150
			c-22.6-46.7-42.1-94.9-53.8-145.6c-1.3-5.4-1-4.7-6-4.7C281.1,660.5,244.5,660,207.7,660.6z M615.3,814.3
			c77.2-30,136.9-80.3,178.2-152.9c-25.1,0-49.5,0-74,0c-10.5,24.3-31.3,44.3-57.4,50.2c-6.8,1.5-9.5,22.7-13.6,29.4
			C638.4,765.9,628,790.7,615.3,814.3z M384,188.1c-76.7,30.7-135.3,80.5-176.1,152.3c21.8,0,43.2,0,65,0c5.4,0,5.6-0.1,7.6-5.1
			c7.7-19.7,21.3-34.1,40-43.6c6.5-4.4,18.1-3.8,22.6-10.2C354.8,249.3,367.9,218.5,384,188.1z"/>
	</g>
</g>
</svg>
